<svg xmlns="http://www.w3.org/2000/svg" height="28" width="124">
  <path fill="#ffffff" d="M4.399,12.438h5.679v4H4.399v11.558H0V0h11.638v3.999H4.399V12.438z"/>
  <path fill="#ffffff" d="M15.76,0h4.399v23.996h7.239v4H15.76V0z"/>
  <path fill="#ffffff" d="M31.319,0h4.399v27.995h-4.399V0z"/>
  <path fill="#ffffff" d="M55.597,0l-4.599,13.598l4.919,14.397h-4.639l-3.56-11.078h-0.08l-3.6,11.078h-4.119l4.919-14.397L40.239,0
    h4.559l3.279,10.318h0.08L51.517,0H55.597z"/>
  <path fill="#ffffff" d="M74.356,27.995h-4.439l-0.76-5.079h-5.399l-0.76,5.079h-4.04L63.438,0h6.439L74.356,27.995z M64.318,19.117
    h4.239l-2.08-14.158h-0.08L64.318,19.117z"/>
  <path fill="#ffffff" d="M91.556,6.439v1c0,2.879-0.88,4.679-2.839,5.599v0.08c2.36,0.92,3.279,3,3.279,5.959v2.28
    c0,4.319-2.279,6.639-6.679,6.639h-6.919V0h6.639C89.597,0,91.556,2.12,91.556,6.439z M82.798,3.999v7.399h1.72
    c1.64,0,2.64-0.72,2.64-2.959v-1.56c0-2-0.68-2.879-2.24-2.879H82.798z M82.798,15.397v8.598h2.52c1.48,0,2.28-0.68,2.28-2.759
    v-2.439c0-2.6-0.84-3.399-2.84-3.399H82.798z"/>
  <path fill="#ffffff" d="M96.638,0h4.399v23.996h7.239v4H96.638V0z"/>
  <path fill="#ffffff" d="M116.597,11.798h6.039v4h-6.039v8.198h7.599v4h-11.998V0h11.998v3.999h-7.599V11.798z"/>
</svg>
