<svg xmlns="http://www.w3.org/2000/svg" height="362" width="740">
  <path fill="#E6B91E" d="M698.063,0H42.297C18.969,0,0,18.984,0,42.313v277.602c0,23.328,18.969,42.305,42.297,42.305h655.766
    c23.328,0,42.313-18.977,42.313-42.305V42.313C740.375,18.984,721.391,0,698.063,0L698.063,0z"/>
  <rect x="106.602" y="76.711" fill-rule="evenodd" clip-rule="evenodd" fill="#010101" width="54.789" height="211.258"/>
  <path fill-rule="evenodd" clip-rule="evenodd" fill="#010101" d="M278.328,76.711l-12.695,98.719l-7.789-53.656
    c-2.352-17.203-4.5-32.258-6.648-45.063h-71.07v211.258h48.023l0.211-139.469l20.172,139.469h34.203l19.25-142.539l0.102,142.539
    H350V76.711H278.328z"/>
  <path fill-rule="evenodd" clip-rule="evenodd" fill="#010101" d="M435.203,287.969c13.109,0,22.938-0.719,29.5-2.148
    c6.438-1.43,11.977-3.891,16.375-7.578c4.406-3.594,7.586-8.602,9.32-14.953c1.844-6.344,2.867-19.039,2.867-37.984v-74.141
    c0-19.969-0.82-33.383-1.945-40.242c-1.227-6.758-4.297-13.008-9.219-18.531c-4.813-5.539-11.977-9.531-21.297-11.977
    c-9.32-2.461-24.68-3.703-51.203-3.703h-40.859v211.258H435.203z M435.719,114.813c2.141,1.227,3.586,3.18,4.203,5.938
    c0.609,2.664,0.922,8.805,0.922,18.328v81.813c0,14.141-0.922,22.742-2.773,25.922c-1.836,3.172-6.648,4.703-14.539,4.703V112.875
    C429.469,112.875,433.563,113.484,435.719,114.813z"/>
  <path fill-rule="evenodd" clip-rule="evenodd" fill="#010101" d="M511.898,76.711v211.258h49.367l3.477-13.414
    c4.398,5.43,9.32,9.414,14.742,12.188c5.438,2.656,13.414,3.992,19.656,3.992c8.609,0,16.18-2.25,22.43-6.859
    c6.352-4.5,10.352-9.93,11.992-16.086c1.742-6.234,2.563-15.656,2.563-28.258V180.25c0-12.797-0.211-21.102-0.82-24.984
    c-0.523-3.891-2.266-7.891-5.023-11.992c-2.867-4.094-6.859-7.258-12.188-9.523c-5.43-2.25-11.672-3.375-18.953-3.375
    c-6.242,0-14.328,1.234-19.758,3.797c-5.32,2.453-10.242,6.242-14.641,11.258V76.711H511.898z M583.281,236.773
    c0,10.141-0.516,16.688-1.539,19.352s-5.43,3.984-8.813,3.984c-3.266,0-5.43-1.219-6.547-3.875c-1.023-2.563-1.641-8.5-1.641-17.82
    v-55.813c0-9.633,0.508-15.57,1.438-18.031c1.023-2.352,3.172-3.578,6.344-3.578c3.375,0,7.875,1.438,9.016,4.102
    c1.125,2.758,1.742,8.602,1.742,17.508V236.773z"/>
</svg>
